# xmcd
#
# Track frame offsets: 
#        150
#        22102
#        45326
#        70665
#        86976
#        102687
#        120161
#        151225
#        188368
#        219667
#
# Disc length: 3175 seconds
#
# Revision: 1
# Processed by: cddbd v1.4PL0 Copyright (c) Steve Scherf et al.
# Submitted via: ExactAudioCopy v0.95a3
#
DISCID=7d0c650a
DTITLE=Oscar Peterson - In Russia [CD2]
DYEAR=1974
DGENRE=Jazz
TTITLE0=Take the 'A' train
TTITLE1=Summertime
TTITLE2=Just friends
TTITLE3=Do you know what it means to miss New Orleans
TTITLE4=I loves you, Porgy
TTITLE5=Georgia on my mind
TTITLE6=Li'l darlin'
TTITLE7=Watch what happens
TTITLE8=Hallelujah trail
TTITLE9=Someone to watch over me
EXTD=Oscar Peterson - piano\nNeils-Henning Orsted Pedersen - bass\nJa
EXTD=ke Hanna - drums\nProduced by Norman Granzinsky\nRecorded in Tall
EXTD=inn, Russia, November 17, 1974\nRemastering, 1996 - Joe Tarantino
EXTD=\n(Fantasy Studios, Berkeley]\nArt direction - Phil Carroll\nDesi
EXTD=gn - giles Margerin\nPhotography - Phil Stern\n
EXTT0=
EXTT1=
EXTT2=
EXTT3=
EXTT4=
EXTT5=
EXTT6=
EXTT7=
EXTT8=
EXTT9=
PLAYORDER=
